<?plantuml 1.2026.1beta5?><svg xmlns="http://www.w3.org/2000/svg" xmlns:xlink="http://www.w3.org/1999/xlink" contentStyleType="text/css" data-diagram-type="DESCRIPTION" height="443px" preserveAspectRatio="none" style="width:482px;height:443px;background:#FFFFFF;" version="1.1" viewBox="0 0 482 443" width="482px" zoomAndPan="magnify"><title>Arquitetura - Credit Query Service</title><defs/><g><g class="title" data-source-line="1"><text fill="#000000" font-family="sans-serif" font-size="14" font-weight="bold" lengthAdjust="spacing" textLength="270.8125" x="98.5938" y="22.9951">Arquitetura - Credit Query Service</text></g><!--cluster Credit Query Service--><g class="cluster" data-qualified-name="Credit Query Service" data-source-line="5" id="ent0002"><path d="M8.5,43.2969 L173.0293,43.2969 A3.75,3.75 0 0 1 175.5293,45.7969 L182.5293,65.5938 L472.5,65.5938 A2.5,2.5 0 0 1 475,68.0938 L475,433.5769 A2.5,2.5 0 0 1 472.5,436.0769 L8.5,436.0769 A2.5,2.5 0 0 1 6,433.5769 L6,45.7969 A2.5,2.5 0 0 1 8.5,43.2969" fill="none" style="stroke:#000000;stroke-width:1.5;"/><line style="stroke:#000000;stroke-width:1.5;" x1="6" x2="182.5293" y1="65.5938" y2="65.5938"/><text fill="#000000" font-family="sans-serif" font-size="14" font-weight="bold" lengthAdjust="spacing" textLength="163.5293" x="10" y="58.292">Credit Query Service</text></g><!--entity UI--><g class="entity" data-qualified-name="Credit Query Service.UI" data-source-line="7" id="ent0003"><rect fill="#87CEEB" height="62.5938" rx="2.5" ry="2.5" style="stroke:#181818;stroke-width:0.5;" width="159.3828" x="77.31" y="78.2969"/><rect fill="#87CEEB" height="10" style="stroke:#181818;stroke-width:0.5;" width="15" x="216.6928" y="83.2969"/><rect fill="#87CEEB" height="2" style="stroke:#181818;stroke-width:0.5;" width="4" x="214.6928" y="85.2969"/><rect fill="#87CEEB" height="2" style="stroke:#181818;stroke-width:0.5;" width="4" x="214.6928" y="89.2969"/><text fill="#000000" font-family="sans-serif" font-size="14" lengthAdjust="spacing" textLength="63.1094" x="92.31" y="111.292">Frontend</text><text fill="#000000" font-family="sans-serif" font-size="14" lengthAdjust="spacing" textLength="119.3828" x="92.31" y="127.5889">(Angular / Nginx)</text></g><!--entity API--><g class="entity" data-qualified-name="Credit Query Service.API" data-source-line="8" id="ent0004"><rect fill="#F0FFF0" height="62.5938" rx="2.5" ry="2.5" style="stroke:#181818;stroke-width:0.5;" width="132.7773" x="90.61" y="217.8869"/><rect fill="#F0FFF0" height="10" style="stroke:#181818;stroke-width:0.5;" width="15" x="203.3873" y="222.8869"/><rect fill="#F0FFF0" height="2" style="stroke:#181818;stroke-width:0.5;" width="4" x="201.3873" y="224.8869"/><rect fill="#F0FFF0" height="2" style="stroke:#181818;stroke-width:0.5;" width="4" x="201.3873" y="228.8869"/><text fill="#000000" font-family="sans-serif" font-size="14" lengthAdjust="spacing" textLength="60.3613" x="105.61" y="250.882">Backend</text><text fill="#000000" font-family="sans-serif" font-size="14" lengthAdjust="spacing" textLength="92.7773" x="105.61" y="267.1789">(Spring Boot)</text></g><!--entity DB--><g class="entity" data-qualified-name="Credit Query Service.DB" data-source-line="9" id="ent0005"><path d="M358.62,376.1269 C358.62,366.1269 408.9965,366.1269 408.9965,366.1269 C408.9965,366.1269 459.3729,366.1269 459.3729,376.1269 L459.3729,401.4238 C459.3729,411.4238 408.9965,411.4238 408.9965,411.4238 C408.9965,411.4238 358.62,411.4238 358.62,401.4238 L358.62,376.1269" fill="#D3D3D3" style="stroke:#181818;stroke-width:0.5;"/><path d="M358.62,376.1269 C358.62,386.1269 408.9965,386.1269 408.9965,386.1269 C408.9965,386.1269 459.3729,386.1269 459.3729,376.1269" fill="none" style="stroke:#181818;stroke-width:0.5;"/><text fill="#000000" font-family="sans-serif" font-size="14" lengthAdjust="spacing" textLength="80.7529" x="368.62" y="403.122">PostgreSQL</text></g><!--entity KAFKA--><g class="entity" data-qualified-name="Credit Query Service.KAFKA" data-source-line="11" id="ent0006"><path d="M26.79,367.4869 L111.2197,367.4869 C116.2197,367.4869 116.2197,388.7837 116.2197,388.7837 C116.2197,388.7837 116.2197,410.0806 111.2197,410.0806 L26.79,410.0806 C21.79,410.0806 21.79,388.7837 21.79,388.7837 C21.79,388.7837 21.79,367.4869 26.79,367.4869" fill="#D8BFD8" style="stroke:#181818;stroke-width:0.5;"/><path d="M111.2197,367.4869 C106.2197,367.4869 106.2197,388.7837 106.2197,388.7837 C106.2197,410.0806 111.2197,410.0806 111.2197,410.0806" fill="none" style="stroke:#181818;stroke-width:0.5;"/><text fill="#000000" font-family="sans-serif" font-size="14" lengthAdjust="spacing" textLength="39.375" x="26.79" y="385.482">Kafka</text><text fill="#000000" font-family="sans-serif" font-size="14" lengthAdjust="spacing" textLength="74.4297" x="26.79" y="401.7789">(Auditoria)</text></g><!--entity KUI--><g class="entity" data-qualified-name="Credit Query Service.KUI" data-source-line="12" id="ent0007"><rect fill="#FFFFF0" height="62.5938" rx="2.5" ry="2.5" style="stroke:#181818;stroke-width:0.5;" width="113.7939" x="210.1" y="357.4869"/><rect fill="#FFFFF0" height="10" style="stroke:#181818;stroke-width:0.5;" width="15" x="303.8939" y="362.4869"/><rect fill="#FFFFF0" height="2" style="stroke:#181818;stroke-width:0.5;" width="4" x="301.8939" y="364.4869"/><rect fill="#FFFFF0" height="2" style="stroke:#181818;stroke-width:0.5;" width="4" x="301.8939" y="368.4869"/><text fill="#000000" font-family="sans-serif" font-size="14" lengthAdjust="spacing" textLength="58.2012" x="225.1" y="390.482">Kafka UI</text><text fill="#000000" font-family="sans-serif" font-size="14" lengthAdjust="spacing" textLength="73.7939" x="225.1" y="406.7789">(Ger&#234;ncia)</text></g><!--link UI to API--><g class="link" data-entity-1="ent0003" data-entity-2="ent0004" data-link-type="dependency" data-source-line="15" id="lnk8"><path d="M157,147.1269 C157,169.9269 157,188.9569 157,211.7369" fill="none" id="UI-API" style="stroke:#181818;stroke-width:1;"/><polygon fill="#181818" points="157,141.1269,153,150.1269,157,146.1269,161,150.1269,157,141.1269" style="stroke:#181818;stroke-width:1;"/><polygon fill="#181818" points="157,217.7369,161,208.7369,157,212.7369,153,208.7369,157,217.7369" style="stroke:#181818;stroke-width:1;"/><text fill="#000000" font-family="sans-serif" font-size="13" lengthAdjust="spacing" textLength="79.5806" x="158" y="183.9538">HTTP / REST</text></g><!--link API to DB--><g class="link" data-entity-1="ent0004" data-entity-2="ent0005" data-link-type="dependency" data-source-line="16" id="lnk9"><path d="M218.5061,283.7723 C265.6461,309.5123 321.2833,339.8924 363.3333,362.8424" fill="none" id="API-DB" style="stroke:#181818;stroke-width:1;"/><polygon fill="#181818" points="213.24,280.8969,219.2222,288.7208,217.6284,283.2931,223.0561,281.6993,213.24,280.8969" style="stroke:#181818;stroke-width:1;"/><polygon fill="#181818" points="368.6,365.7169,362.6163,357.8941,364.2111,363.3215,358.7837,364.9163,368.6,365.7169" style="stroke:#181818;stroke-width:1;"/><text fill="#000000" font-family="sans-serif" font-size="13" lengthAdjust="spacing" textLength="31.8398" x="299" y="323.5538">JDBC</text></g><!--link API to KAFKA--><g class="link" data-entity-1="ent0004" data-entity-2="ent0006" data-link-type="dependency" data-source-line="19" id="lnk10"><path d="M137.47,280.7269 C120.66,307.0069 100.0929,339.1624 85.4329,362.0824" fill="none" id="API-to-KAFKA" style="stroke:#181818;stroke-width:1;"/><polygon fill="#181818" points="82.2,367.1369,90.4191,361.7104,84.8941,362.9248,83.6797,357.3998,82.2,367.1369" style="stroke:#181818;stroke-width:1;"/><text fill="#000000" font-family="sans-serif" font-size="13" lengthAdjust="spacing" textLength="102.7686" x="119" y="323.5538">Publica Eventos</text></g><!--reverse link KAFKA to KUI--><g class="link" data-entity-1="ent0006" data-entity-2="ent0007" data-link-type="dependency" data-source-line="20" id="lnk12"><path d="M122.68,388.7769 C150.71,388.7769 180.34,388.7769 209.87,388.7769" fill="none" id="KAFKA-backto-KUI" style="stroke:#181818;stroke-width:1;"/><polygon fill="#181818" points="116.68,388.7769,125.68,392.7769,121.68,388.7769,125.68,384.7769,116.68,388.7769" style="stroke:#181818;stroke-width:1;"/><text fill="#000000" font-family="sans-serif" font-size="13" lengthAdjust="spacing" textLength="57.3828" x="134.66" y="381.8438">Monitora</text></g><?plantuml-src RP2_Ri8m48VtFCK91ieGLUg8gae9_njQXIQTsWv7OeALO0V71gAgBzIzJy2BzU98KA5wyE3xVRxlJdDTCF3Kpd3Dj548BWmLIxc6fM6gXeYfFK-OurGv5oKgt48YjwKKJEX8rmIRRN7dE2KcEMOCEl_H7VXqW8wzpZYyJPGKcedqNTnu8ZC5AhY5vuoBO_y3i8BNENIZlFOBmwvHd_grP5GgBZBmfTGjvOM4pIXNZzZ1SYbgN655Tg6iTAPOj5nqckZ8X-w2PnizLLXV57U66Ge7kCwnSJCqaLGS-nOAl4dWGJVUy8gMTorc8J8dRihKwLian5cle1bdlfUgTYpKWo4nnzCFgo2a6H9U8gziYPBthljWHnd0B8v3MipBE8fjjNcrPT8VmEF87rxKUt2sFMVTL1u4nLln0OHcLV04ORmdOzbsREJSWgtrdzoJ5CrFw7pz0W00?></g></svg>